<svg width="1080" height="1080" viewBox="0 0 1080 1080" fill="none" xmlns="http://www.w3.org/2000/svg">
<path d="M164.03 840.8C156.04 840.85 148.04 840.76 140.05 841.05C137.25 841.15 136.54 839.91 136.48 837.67C136.32 832.01 135.88 826.33 136.18 820.7C137.12 802.66 137 784.51 141.49 766.81C148.2 740.33 162.31 718.05 180.73 698.35C218.89 657.56 266.35 633.37 320.28 621C330.12 618.74 340.04 616.85 349.93 614.79C350.27 614.39 350.49 613.94 350.59 613.42C349.91 606.82 348.41 600.36 347.52 593.79C345.02 575.3 347.95 557.42 352.82 539.7C353.65 537.28 354.42 534.84 354.7 532.27C354.76 531.77 354.86 531.28 354.98 530.79C355.59 528.38 356.35 526.03 357.33 523.74C359.67 518.59 362.45 513.58 362.11 507.65C361.5 507.05 360.81 506.64 359.99 506.4C341.95 501.2 333.84 487.84 330.78 470.52C329.3 462.15 329.9 453.7 330.71 445.29C330.94 444.02 331.03 442.74 331.18 441.46C332.38 439.05 333.08 436.43 334.15 433.97C335.88 430.66 337.71 427.39 339.02 423.88C339.9 422.01 340.83 420.18 342.17 418.59C344.39 416.51 346.76 414.57 348.36 411.91C349.03 411.05 349.8 410.3 350.63 409.59C351.89 408.8 353.08 407.92 354.18 406.92C354.5 406.63 354.85 406.38 355.21 406.14C356.34 405.51 357.25 404.6 358.14 403.69C358.55 403.2 359 402.75 359.64 402.57C361.15 402.42 362.3 401.53 363.45 400.64C363.81 400.37 364.19 400.14 364.58 399.93C367.46 398.37 370.49 397.19 373.48 395.87C381.13 392.48 389.51 392.09 397.47 390C398.11 389.24 398.65 388.41 399.19 387.58C400.16 382.79 399.37 377.95 399.65 373.14C399.68 372 399.76 370.86 400.04 369.75C401.36 364.59 400.02 359.28 400.9 354.09C400.94 336.18 402.06 318.4 407 301.06C407.54 298.74 408.32 296.5 409.35 294.36C412.52 287.01 416.51 280.19 422.25 274.51C426.26 270.31 431.1 267.13 435.64 263.58C436.47 263.13 437.32 262.74 438.16 262.32C440.05 261.91 441.81 261.16 443.51 260.23C444.54 260.09 445.54 259.82 446.58 259.74C453.82 259.2 461.01 260.32 468.22 260.34C472.37 256.93 473.98 251.72 477.16 247.63C482.97 239.2 489.43 231.35 497.72 225.19C508.17 217.75 519.44 212.04 531.89 208.79C535.15 208.54 538.19 207.25 541.41 206.77C541.92 206.69 542.42 206.62 542.93 206.53C544.96 205.87 547.05 205.77 549.16 205.74C551.32 205.77 553.47 205.74 555.55 205C559.8 204.56 564.06 204.54 568.31 204.98C577.52 206.28 586.73 207.43 595.57 210.66C600.44 212.44 605 214.85 609.77 216.78C620.19 221.84 628.88 229.04 636 238.13C638.59 241.44 639.86 245.4 640.98 249.39C641.84 256.58 644.54 260.92 653.14 260.32C658.06 259.98 663.12 262.39 667.72 264.81C672.78 267.85 677.19 271.59 680.63 276.43C684.59 281.24 687.97 286.43 690.76 292.01C690.99 292.46 691.16 292.93 691.3 293.41C694.33 300.6 696.5 308.04 698.01 315.69C699.68 325.33 698.55 335.2 700.36 344.83C701.35 350.06 703.2 355.02 704.99 360.01C706.21 363.42 708.27 364.97 712.06 364.74C718.19 364.37 724.33 364.58 730.24 366.6C739 369.12 745.47 374.95 751.53 381.36C753.45 383.44 754.97 385.8 756.43 388.21C764.3 401.14 768.32 415.05 767.34 430.29C767.16 433.11 766.86 435.88 766.29 438.64C765.39 442.9 763.82 446.93 762.01 450.88C761.43 452.06 760.95 453.29 760.33 454.46C757.423 459.893 758.11 465.003 762.39 469.79C762.75 470.07 763.08 470.39 763.38 470.73C764.92 473.22 766.96 475.39 768.24 478.06C769.99 482.75 773.15 486.59 775.83 490.73C778.97 495.58 781.41 500.84 784.57 505.68C784.85 506.08 785.08 506.5 785.3 506.94C790.26 516.64 794.42 526.66 797.81 537.01C799.59 542.26 800.48 547.7 801.03 553.2C801.37 555.54 801.04 557.96 801.94 560.23C802.09 560.78 802.17 561.33 802.22 561.89C802.38 567.66 802.33 573.42 802.27 579.18C802.24 580 802.15 580.82 801.96 581.62C801.21 583.54 801.28 585.59 801.03 587.59C800.1 593.5 799.08 599.39 796.76 604.97C795.76 608.11 794.04 610.99 793.5 614.28C793.53 615.38 794.04 616.21 794.98 616.78C823.76 622.75 852.1 629.92 878.7 643.02C925.67 666.16 953.47 703.84 964.89 754.39C969.38 774.28 972.44 794.36 974.02 814.69C974.62 822.45 975.83 830.16 975.95 837.97C975.99 840.36 975.32 841.09 972.9 841.04C964.25 840.85 955.59 840.88 946.93 840.82C944.84 837.77 944.84 834.22 944.63 830.77C943.15 806.44 939.96 782.41 932.53 759.09C921.15 723.38 900.94 694.36 868.48 674.66C851.65 664.44 833.35 657.95 814.19 653.74C802.15 651.1 789.97 649.23 777.82 647.14C774.76 646.61 772.61 647.26 770.23 649.44C748.83 669.04 725.95 686.65 700.44 700.66C698.55 701.7 696.63 702.71 694.56 703.4C678.51 710.67 662.31 717.51 645.08 721.59C626.45 726 607.65 728.7 588.44 728.41C572.51 728.17 556.56 728.8 540.67 727.09C538.85 726.53 536.99 726.25 535.08 726.34C532.71 726.27 530.33 726.41 527.97 726.1C527.46 726.04 526.96 725.92 526.46 725.78C520.82 724.95 515.2 723.95 509.57 723.15C509.11 723.08 508.66 722.97 508.22 722.83C506.8 722.25 505.28 722.09 503.78 721.87C503.36 721.79 502.95 721.67 502.55 721.54C501.15 721.02 499.65 721.08 498.2 720.79C497.76 720.71 497.34 720.59 496.91 720.46C494.27 719.7 491.58 719.24 488.85 718.96C487.44 718.64 486.07 718.19 484.68 717.77C480.75 716.23 476.49 715.69 472.64 713.9C463.14 710.7 453.84 706.94 444.16 704.27C442.18 703.95 440.42 703.11 438.78 702C434.94 699.54 430.83 697.6 426.58 695.95C426.15 695.79 425.75 695.58 425.36 695.35C422.24 693.11 418.67 691.7 415.28 689.95C414.87 689.74 414.48 689.5 414.1 689.24C410.04 686.2 405.49 683.93 401.33 681.05C400.94 680.82 400.57 680.55 400.21 680.26C398.02 678.35 395.64 676.68 393.27 675C392.88 674.76 392.52 674.49 392.17 674.2C390.22 672.26 388.18 670.42 385.81 668.99C377.37 661.5 368.65 654.28 362.89 644.31C361.66 642.17 359.81 641.53 357.37 641.98C315.51 649.65 274.67 660.19 239.31 685.4C204.75 710.04 179.38 741.43 169.26 783.54C165.34 799.84 165.22 816.5 165.28 833.15C165.28 835.74 166 838.53 163.97 840.8H164.03Z" fill="black"/>
<path d="M923.95 840.81C917.65 840.91 911.35 841 905.06 841.1C903.06 839.98 902.86 837.87 902.32 835.99C899.91 827.6 896.43 819.73 891.39 812.56C886.63 805.79 880.17 802.12 871.91 802.38C866.71 802.54 863.09 800.85 859.27 797.1C849.88 787.87 837.93 784.9 825.14 786.83C819.92 787.62 816.3 787.3 812.25 783.41C804.07 775.56 793.37 774.87 782.73 775.52C777.45 775.84 772.08 776.34 767.02 778.19C763.57 779.45 760.99 778.45 758.72 775.59C752.08 767.22 744.96 759.34 735.85 753.47C724.11 745.91 711.19 741.83 697.44 740.34C660.13 736.28 626.86 748.15 595.37 766.69C584 773.38 573.65 781.48 563.64 790.07C558.4 794.56 557.12 794.3 552.89 788.7C543.09 775.7 531.95 764.15 517.97 755.54C500.28 744.65 481.18 739.02 460.35 738.21C420.27 736.64 386.3 751.72 355.32 775.47C351.88 778.11 348.86 781.25 346.08 784.57C341.15 790.46 333.11 792.83 326.79 788.78C318.99 783.78 310.9 781.45 301.76 782.22C299.35 782.42 297.27 781.24 295.19 780.14C281.54 772.94 263.2 775.48 252.31 786.13C249.84 788.55 247.27 790.73 243.62 790.24C219.24 786.99 204.92 808.98 201.44 828.33C200.66 832.64 201.27 837.42 197.96 841.07L184.01 840.8C182.28 837.91 183.54 834.87 183.95 832.05C187.58 806.95 192.63 782.18 202.54 758.66C217.74 722.58 242.92 696.61 279.53 681.86C308.62 670.15 339.13 664.1 369.67 658C372.7 657.4 375.43 658.01 377.33 660.45C380.23 664.17 384.07 666.86 387.33 670.17C399.28 680.89 412.91 688.99 427.13 696.34C441.83 703.94 457.49 708.88 472.99 714.34C492.56 720.63 512.68 724.11 533.03 726.57C549.37 728.55 565.81 729.6 582.22 729.46C608.38 729.23 634.25 726.17 659.31 718.15C673.27 713.68 686.69 707.82 699.67 701.01C701.08 699.95 702.64 699.1 704.16 698.22C705.9 697.69 707.54 696.95 709.03 695.88C709.38 695.59 709.75 695.34 710.14 695.11C712.01 694.24 713.75 693.18 715.09 691.57C728.21 683.6 740.51 674.52 751.98 664.36C756.38 660.47 760.78 659.27 766.57 660.31C790.52 664.61 814.39 669.09 837.1 678.22C878.17 694.73 903.95 724.68 915.4 767.26C920.09 784.7 922.06 802.52 923.33 820.48C923.81 827.26 924.89 834 923.94 840.82L923.95 840.81Z" fill="#525252"/>
<path d="M197.97 841.07C199.75 830.64 200.95 820.06 206.17 810.54C213.77 796.68 224.46 787.75 241.24 789C245.82 789.34 248.95 787.83 252.11 784.56C262.54 773.77 283.44 771.31 296.2 779.23C298.5 780.66 300.73 781.22 303.24 780.93C311.93 779.93 319.56 782.41 326.71 787.33C332.08 791.03 340.37 789.17 344.47 784.29C353.71 773.29 365.69 765.76 377.89 758.54C394.63 748.64 412.51 741.29 431.66 738.44C468.1 733.03 502.03 739.11 531.25 763.48C540.02 770.79 547.37 779.3 554.22 788.31C556.59 791.43 558.06 793.43 562.32 789.61C581.02 772.85 601.81 759.2 625.39 750.2C640.58 744.4 656.05 740.15 672.46 738.69C689.88 737.14 706.43 739.19 722.67 745.2C738.21 750.95 749.78 761.77 759.62 774.61C761.87 777.54 763.7 777.96 767.08 776.93C778.52 773.44 790.14 772.83 801.83 775.93C807.13 777.34 811.69 780.14 815.24 784.13C817.2 786.34 818.53 786.75 821.44 786.15C837.74 782.79 852.06 786.37 863.21 799.38C864.72 801.15 866.37 801.08 868.11 800.91C881.75 799.59 890.36 806.38 896.43 817.85C900.35 825.25 903.05 833.03 905.06 841.09C907.75 854.24 908.56 867.36 907.11 880.85C904.84 901.94 899.83 922.29 892.87 942.2C886.72 959.8 872.61 967.01 854.18 963.16C849.15 962.11 844.15 961.47 840.21 957.83C838.56 956.3 837.73 957.63 836.6 958.63C824.24 969.63 810.06 971.51 794.62 966.91C794.31 966.82 793.87 966.88 793.67 966.69C786.13 959.53 778.19 964.48 770.08 965.31C757.78 966.56 745.04 968.07 733.92 959.79C726.58 954.33 722.84 946.9 721.24 938.22C720.83 935.99 720.8 935.37 717.97 935.76C695.17 938.92 681.54 925.31 677.73 911.57C674.2 898.85 674.53 885.91 675.73 872.84C676.69 862.34 679.13 852.19 681.2 841.94C680.79 834.5 683.86 828.04 686.39 821.41C679.25 824.99 672.71 829.69 668.7 837.3C668 838.64 667.2 839.87 665.96 840.77C661.68 840.8 657.4 840.83 653.12 840.86C650.83 838.28 652.43 835.73 653.49 833.46C660.37 818.71 672.07 809.49 687.46 804.96C691.2 803.86 693.99 802.38 696.17 799.09C702.89 788.89 711.77 781.5 724.05 778.89C730.59 777.75 737.15 777.21 743.92 778.39C738.84 771.42 732.57 766.11 725.25 762.07C704.72 750.75 682.98 748.86 660.4 753.99C627.92 761.36 599.23 776.17 574.17 798.06C571.79 800.14 569.26 802.02 567.08 804.35C561.33 810.51 555.41 810.59 549.41 804.52C546.37 801.44 543.84 797.9 541.25 794.43C523.15 770.2 499.2 755.7 469.32 750.82C453.52 748.24 438.19 750.29 423.01 754.6C401.27 760.77 381.66 771.11 363.88 784.99C362.96 785.71 362.05 786.43 361.2 787.23C357.53 790.66 357.55 791.2 361.88 793.42C365 795.02 367.9 796.96 370.81 798.9C373.54 800.84 376.12 803.08 378 805.76C380.83 809.81 384.43 811.02 389.14 810.68C404.39 809.6 417.82 822.23 422.43 836.7C422.88 838.12 423.3 839.62 421.92 840.86L409.06 840.77C406.96 840.02 406.3 838.05 405.31 836.35C402.45 831.46 398.34 827.98 393.06 826.01C389.68 824.75 389.03 825.52 389.57 829.11C390.17 833.07 392.58 836.98 390.14 841.09C391.42 852.77 393.04 864.51 391.67 876.2C390.82 883.44 391.58 890.68 390.18 897.91C387.53 911.57 386.23 925.56 377.34 937.15C366.47 951.32 354.58 952.96 340.41 942.17C338.97 944.76 337.67 947.44 336.06 949.93C331.21 957.46 324.24 961.13 315.26 960.89C309.03 960.73 302.8 961.38 296.66 959.09C292.32 957.48 288.64 955.32 285.59 951.92C284.7 950.93 284.11 949.89 282.09 951.01C266.95 959.42 252.6 955.03 244.13 942.18C242.61 939.87 241.95 940.34 240.32 941.59C232.49 947.58 218.33 944.99 211.47 938.95C201.88 930.51 198.24 919.78 197.06 907.63C196.16 898.43 194.69 889.19 195.25 879.99C196.05 867 196.1 853.94 198 841.02L197.97 841.07Z" fill="black"/>
<path d="M723.87 779.8C710.87 783.38 701.67 791.67 695.09 803.15C693.57 805.8 691 805.64 688.62 805.93C674.74 807.63 655.77 824.87 653.03 838.4C652.87 839.19 653.07 840.05 653.1 840.88C576.03 840.88 498.96 840.88 421.89 840.88C420.74 826.8 405.05 812 391.26 811.96C390.93 811.96 390.59 811.92 390.26 811.96C384.53 812.68 379.72 811.77 376.46 806.1C375.04 803.63 372.22 801.97 370.03 799.94C368.61 797.42 370.62 796.18 372.12 795.07C392.03 780.38 412.59 766.4 436.98 760.69C461.28 755.01 484.83 758.54 505.57 773.38C520.46 784.03 534.86 795.34 546.02 810.22C550.73 816.5 556.51 817.04 563.16 812.73C566.13 810.81 568.64 808.31 570.8 805.59C578.15 796.38 587.64 789.99 598.07 785C616.28 776.29 634.89 768.71 654.97 765.25C677.54 761.36 699.08 763.48 719.18 775.18C721.09 776.29 723.65 776.89 723.85 779.79L723.87 779.8Z" fill="#C3C3C3"/>
<path d="M387.02 670.99C383.65 667.79 380.16 664.7 376.96 661.33C375.01 659.28 372.89 658.59 370.25 659.14C344.29 664.5 318.22 669.43 293.09 678.13C276.7 683.81 260.83 690.67 247.08 701.49C226.65 717.57 211.86 737.89 202.5 762.16C193.38 785.8 187.96 810.31 185.01 835.43C184.8 837.23 184.35 839.01 184.01 840.79C177.35 840.79 170.69 840.79 164.02 840.79C164.21 827.16 163.5 813.5 165.09 799.92C167.33 780.74 172.96 762.56 182.3 745.66C190.96 730 201.98 716.06 214.89 703.69C234.7 684.72 257.59 670.58 283.06 660.44C307.55 650.69 333.18 645.3 358.89 640.17C360.27 639.9 361.75 639.85 362.47 641.2C368.46 652.4 378.38 660.1 387.04 668.93C387.55 669.38 387.63 669.92 387.42 670.54C387.28 670.69 387.14 670.83 387.01 670.97L387.02 670.99Z" fill="#272727"/>
<path d="M923.95 840.81C921.8 834.24 922.71 827.34 922.13 820.63C920.21 798.13 917.73 775.81 909.93 754.43C896.67 718.05 871.64 693.22 835.81 679.1C813.79 670.42 790.61 666.32 767.52 661.69C759.03 659.99 754.29 663.7 748.72 668.41C738.08 677.4 726.7 685.44 714.96 692.96C713.42 694.18 711.47 694.71 709.96 695.96C708.41 697.17 706.49 697.74 704.93 698.93C703.61 699.62 702.3 700.31 700.98 701C699.05 701.87 697.5 703.75 695.04 703.24C694.78 702.97 694.68 702.69 694.75 702.4C694.82 702.11 694.89 701.96 694.97 701.96C716.16 691.03 735.43 677.37 753.69 662.05C759.75 656.96 765.78 651.93 771.27 646.24C772.45 645.02 773.83 644.96 775.41 645.25C795.25 648.9 815.27 651.58 834.57 657.87C853.09 663.9 870.14 672.6 885.29 684.85C916.43 710.03 932.01 744 939.9 782.23C943.32 798.78 945.37 815.51 946.02 832.41C946.13 835.2 947.25 837.92 946.97 840.78C939.3 840.78 931.63 840.8 923.96 840.81H923.95Z" fill="#272727"/>
<path d="M390.11 841.11C390.22 836.75 389.09 832.6 388.06 828.42C387.74 827.11 386.14 825.53 387.89 824.38C389.29 823.45 391.13 823.74 392.7 824.36C398.91 826.82 403.96 830.65 406.97 836.79C407.63 838.13 408.34 839.45 409.03 840.77C402.72 840.88 396.42 840.99 390.11 841.1V841.11Z" fill="#272727"/>
<path d="M665.95 840.78C667.92 831.77 679.81 822 687.46 820.2C685.33 827.58 683.26 834.77 681.18 841.96C676.25 839.63 670.98 841.74 665.95 840.79V840.78Z" fill="#272727"/>
<path d="M715.9 664.81C715.62 664.92 715.33 665.02 715.04 665.12C712.8 667.88 709.39 669.09 706.8 671.38C700.51 674.76 694.69 679 687.91 681.46C681.74 684.48 675.19 686.66 669.14 689.93C662.55 692.53 655.61 694.09 649.06 696.79C647.54 697.45 645.91 697.67 644.3 697.95C632.25 700.33 620.28 703.12 608.02 704.31C592.95 705.78 577.87 706.26 562.75 705.22C538.84 703.58 515.23 700.06 492 694.11C491.35 693.94 490.68 694 490.01 694L489.03 693.96C487.53 693.16 485.54 693.52 484.35 691.98C474.62 681.68 465.19 671.13 458.28 658.64C449.08 642.01 442.8 624.59 441.46 605.33C440.86 596.75 441.04 588.37 442.58 580.08C446.03 561.48 457.29 548.03 472.29 537.37C476.23 534.57 480.06 531.71 483.52 528.29C491 520.88 490.46 507.25 482.06 502.01C477.28 499.02 473.4 494.77 469.41 490.74C461.18 482.42 458.05 472.41 460.05 461.03C464.92 433.38 476.12 408.78 494.9 387.59C504.33 376.95 514.83 367.57 525.29 358.07C530.1 354.16 535.33 353.96 540.73 356.53C560.42 365.9 579.85 364.3 598.73 354.55C606.59 350.49 613.31 351.59 620.31 356C646.58 372.56 663.7 396.28 674.5 424.97C677.26 432.31 679.16 439.9 680.94 447.52C682.2 452.9 682.75 458.26 681.5 463.82C679.9 470.95 679.28 478.32 678.72 485.55C677.91 495.98 681.81 505.05 690.41 511.74C696.61 516.58 703.57 520.2 710.12 524.47C730.56 537.8 739.55 557.06 740.33 580.93C741.14 605.96 733.94 629.23 725.31 652.23C724.9 653.32 724.39 654.37 724.18 655.53C722.91 659.94 718.5 661.56 715.9 664.8V664.81Z" fill="#C3C3C3"/>
<path d="M515.01 239.06C532.29 229.64 550.65 223.98 570.43 225.27C590.77 226.59 608.72 233.48 620.99 251.06C625.56 258.1 626.9 265.68 625.11 273.9C624.54 276.5 623.86 279.06 623.37 281.68C622.9 284.18 622.3 286.81 625.13 288.29C627.68 289.62 629.96 288.69 631.85 286.71C634.62 283.82 638.25 282.45 641.96 281.69C648.6 280.33 654.46 281.87 658.71 287.63C665.5 298.66 670.78 310.34 672.01 323.34C673.02 333.93 673.67 344.56 676.35 354.89C683.6 382.92 694.82 409.35 708.65 434.73C721.8 458.87 737.95 481.19 751.27 505.2C760.89 522.54 769.68 540.3 773.56 560.01C775.64 570.59 773.86 580.85 770.83 591C768.1 600.13 764.46 608.86 759.53 617.03C759.01 617.89 758.58 618.8 757.93 619.56C757.19 620.41 756.36 621.55 755.08 620.76C754.09 620.15 754.5 618.96 754.75 618.02C756.48 611.43 758 604.81 758.95 598.05C762.44 573.1 757.72 550.13 742.62 529.64C736.68 520.35 728.16 513.68 719.44 507.32C713.68 503.13 707.85 498.95 701.46 495.74C697.73 493.87 696.8 491.55 697.83 487.35C700.64 475.91 702.78 464.31 701.52 452.41C700.5 442.77 697.95 433.52 694.22 424.58C686.47 406.01 678.57 387.49 666.18 371.37C657.5 360.08 646.58 351.08 635.48 342.33C631.57 339.25 627.88 335.9 623.72 333.13C614.41 326.94 608.07 326.93 599.04 333.58C592.42 338.46 585.17 342 577.41 344.62C576.92 344.84 576.41 344.96 575.88 344.99C569.21 346.29 562.55 346.31 555.88 345.01C550.61 344 545.53 342.17 541.15 339.2C530.34 331.88 520.4 333.2 510.58 341.06C500.64 349.01 490.44 356.66 481.64 365.94C468.18 380.11 457.54 396.16 449.52 413.98C449.25 414.4 448.93 414.78 448.56 415.12C442.51 427.76 438.16 440.9 436.33 454.87C434.98 465.21 435.32 475.3 438.47 485.35C441.89 496.28 449.13 504.32 457.34 511.73C457.58 511.95 457.9 512.08 458.17 512.29C463.7 516.61 463.67 518.6 457.69 522C452 525.23 446.9 529.12 442.44 533.9C436.84 539.9 432.3 546.59 428.92 554.07C428.49 555.04 428.02 555.99 427.47 556.89C422.55 566.39 419.49 576.57 417.76 587C415.18 602.59 415.04 618.29 418.61 633.84C418.87 634.97 419.13 636.1 419.63 637.16C419.85 637.68 420 638.21 420.09 638.76C420.83 642.53 422.09 646.14 423.38 649.74C423.9 651.19 424.44 652.93 422.92 653.83C421.4 654.72 420.09 653.34 419.08 652.28C415.17 648.18 411.88 643.59 408.64 638.96C399.68 626.14 396.87 611.3 394.89 596.26C393.57 586.22 392.7 576.14 392.66 565.98C392.53 537.22 397.3 509.56 408.88 483C418.25 461.5 425.35 439.13 430.24 416.17C433.56 400.59 436 384.87 435.83 368.79C435.75 360.85 435.69 352.9 435.7 344.96C435.72 336.48 434.56 328.09 433.95 319.66C433.04 307.06 434.23 294.96 444.83 286C450.42 280.97 456.88 278.69 464.43 279.89C467.71 280.41 470.89 281.36 474.11 282.1C479.44 283.33 481.81 282.16 483.74 277.01C486.53 269.56 489.78 262.44 494.52 255.92C499.96 248.44 507.54 243.88 515.04 239.08L515.01 239.06Z" fill="#525252"/>
<path d="M715.9 664.81C717 660.86 721.79 659.87 722.96 655.98C733.22 631.4 740.85 606.22 739.93 579.2C739.36 562.51 733.44 547.68 722.48 535.17C716.08 527.86 707.41 523.28 699.15 518.3C693.32 514.78 687.82 510.94 683.6 505.31C679.11 499.32 677.49 492.55 678.22 485.59C679.03 477.86 679.43 470.04 681.13 462.4C681.81 459.33 682.06 456.19 681.47 453.02C676.26 425.18 665.4 400.11 646.37 378.71C638.43 369.78 629.28 362.57 619.41 356.14C612.92 351.91 606.46 350.94 598.9 355.11C582.6 364.09 565.19 365.42 547.31 360.12C544.1 359.17 541.38 357.15 538.13 356.24C533.11 354.83 528.63 355.3 524.82 359.14C523.84 360.37 522.52 361.17 521.18 361.93C508.59 370.38 498.91 381.74 489.31 393.27C473.23 412.6 464.43 435.07 459.64 459.46C456.47 475.63 463.27 487.57 475.08 497.46C477.47 499.46 479.55 501.98 482.63 503.12C491.07 507.54 490.78 520.33 484.09 527.94C479.29 533.4 472.85 536.7 467.36 541.23C452.49 553.51 443.25 568.64 441.89 588.4C439.77 619.35 449.4 646.6 467.13 671.35C471.25 677.1 475.76 682.7 481 687.59C481.98 688.51 483.66 689.27 482.99 691.2C475.04 690.4 467.63 688.8 461.3 683.01C454.17 676.5 447.04 670.07 441.25 662.33C431.49 649.3 426.97 634.19 425.72 618.3C423.85 594.38 428.51 571.7 441.26 551.03C442.74 548.63 444.34 546.32 446.25 544.24C451.28 536.39 459.16 532.12 466.99 527.8C469.45 526.44 472.17 525.52 474.47 523.89C478.34 521.16 478.47 518.34 475.36 514.83C472.15 511.21 468.23 508.38 464.57 505.33C460.33 501.8 456.73 497.74 452.96 493.8C443.29 480.58 443.22 465.76 445.92 450.56C446.98 444.55 448.51 438.63 450.43 432.83C456.37 416.63 463.96 401.29 474.1 387.26C476.9 383.38 479.99 379.74 483.09 376.1C493.61 365.16 505.14 355.44 517.47 346.55C523.26 342.38 528.53 341.84 534.6 344.93C540.67 348.02 546.53 351.57 553.3 353.06C571.57 357.09 587.85 352.55 602.72 341.73C609.92 336.49 614.59 336.26 621.14 341.94C631.69 351.09 643.22 359.11 652.75 369.42C655.12 371.98 657.48 374.54 659.84 377.1C670.29 390.75 677.05 406.37 683.88 421.96C686.26 427.4 688.58 432.88 689.92 438.71C693.58 451.54 693.61 464.46 690.93 477.45C690.92 477.97 690.84 478.5 690.71 479.01C689.71 481.82 689.16 484.74 688.78 487.7C687.53 491.41 685.7 495.17 689.5 498.55C693.85 503.05 699.67 505.36 704.82 508.65C718.96 517.68 731.84 527.93 740.51 542.67C747.95 555.83 752.05 569.92 751.35 585.07C750.73 598.57 747.53 611.65 743.41 624.5C741.28 631.14 738.89 637.68 736.59 644.27C735.45 647.54 733.75 650.02 730.77 652C727.46 654.19 725.13 657.62 722.02 660.14C720.4 662.26 718.19 663.62 715.88 664.84L715.9 664.81Z" fill="#898989"/>
<path d="M515.01 239.06C512.58 242.11 508.96 243.55 505.89 245.74C495.93 252.84 489.68 262.59 485.61 273.89C482.21 283.33 480.32 284.61 470.54 281.92C461.61 279.47 453.29 279.21 446 285.98C434.3 294.68 433.31 307.29 434.42 320.11C434.86 325.17 435.37 330.38 435.64 335.4C436.21 346.3 436.87 357.25 436.5 368.22C435.97 383.84 434.31 399.31 430.94 414.55C428.04 427.66 424.53 440.61 420.37 453.4C414.26 472.22 405.3 490.04 400.01 509.08C393.58 532.25 391.78 556 393.8 580.09C394.92 593.5 396.21 606.82 400.04 619.76C404.11 633.47 412.24 644.72 422.07 654.82C423.53 656.32 425.04 657.9 426.13 658.7C423.34 652.39 421.16 645.19 419.04 637.96V637.98C412.12 609.72 414.88 582.4 427.03 556C427.09 555.2 427.24 554.44 428.01 554C430.03 549.65 432.82 545.74 435.19 541.59C435.94 540.28 437.02 538.74 439.01 538.79C439.3 539.06 439.4 539.33 439.3 539.59C439.2 539.85 439.1 539.99 439 539.99C426.62 557.76 419.53 577.27 417.8 599.03C415.92 622.78 420.46 644.72 433.02 664.98C435.15 667.54 436.45 670.66 438.66 673.18C439.57 674.22 441.4 675.16 440.03 676.88C438.95 678.23 437.46 677.17 436.37 676.68C428.18 673.03 420.03 669.29 412.64 664.12C410.74 662.79 408.9 661.36 407.02 660C385.3 642.82 372.72 620.51 368.92 593.04C365.35 567.19 370.97 542.98 380.85 519.34C389.43 498.8 400.06 479.18 407.91 458.31C412.95 444.91 416.29 431.1 418.04 416.9C420.05 400.59 420.53 384.2 421.28 367.81C422.11 349.83 421.08 331.56 426.11 313.99C429.84 300.95 435.93 289.33 448.45 282.27C455.64 278.21 462.99 278.38 470.64 280.42C480.3 283 480.55 283.03 484.13 273.62C489.05 260.66 496.53 249.83 508.34 242.25C510.44 240.9 512.45 239.43 515.01 239.08V239.06Z" fill="#272727"/>
<path d="M657.95 288.05C650.44 280.33 640.87 279.92 632.53 287.04C630.12 289.1 627.7 290.69 624.53 288.8C621.21 286.82 621.82 283.96 622.78 280.92C626 270.75 625.98 260.74 620.98 251.06C627.62 258.32 627.4 266.88 625.59 275.72C625.16 277.83 624.32 279.87 624.08 281.99C623.85 284.03 623.18 286.59 625.75 287.72C627.96 288.69 629.73 287.53 631.57 286.06C637.87 281.03 645.03 278.44 652.76 282.04C662.64 286.64 669.4 294.28 673.1 304.72C675.46 311.39 676.24 318.33 676.75 325.17C677.98 341.71 682.05 357.49 687.85 372.89C694.56 390.73 700.13 409.03 708.97 426.03C717.45 443.33 727.56 459.63 738.7 475.35C752.57 494.94 764.27 515.82 772.64 538.32C777.78 552.14 781.65 566.48 780.43 581.56C779.66 591.1 776.61 600 772.46 608.55C768.4 615.91 763.63 622.77 757.93 628.97C756.61 629.65 755.61 630.64 754.94 631.97C754.4 632.35 753.88 632.78 753.33 633.15C752.3 633.83 751.58 635.69 750.14 634.85C748.7 634.01 749.51 632.45 750.11 631.3C750.83 629.92 749.95 628.28 750.97 627C751 626.67 751.03 626.34 751.08 626.02C754.85 625.84 755.76 622.34 757.18 620.04C765.45 606.62 771.08 592.13 773.5 576.47C775.52 563.42 771.4 551.43 766.98 539.55C758.4 516.48 745.66 495.58 732.34 475.07C713.08 445.42 695.95 414.75 683.85 381.39C677.28 363.29 672.85 344.8 671.52 325.59C670.57 311.77 665.56 299.46 657.96 288.07L657.95 288.05Z" fill="#272727"/>
<path d="M351.02 445.01C353.13 429.95 362.62 420.96 375.84 415.24C384.4 411.54 393.15 409.17 402.79 410.88C409.09 411.99 409.86 412.35 409.12 418.73C406.93 437.71 400.49 455.37 392.72 472.65C392.04 474.16 391.61 475.8 390.79 477.22C388.91 480.46 388.68 485.64 384.94 486.59C379.53 487.96 373.69 489.51 367.99 487.03C370.9 485.5 372.67 483.18 373.83 480.05C381.43 459.65 388.12 438.95 394.01 417.99C394.48 416.33 397.29 412.86 392.12 412.93C382.98 415.05 374.19 417.9 366.57 423.73C361.08 427.93 357.44 433.32 354.92 439.62C354.18 441.47 353.65 443.42 352.35 445.01C351.9 445.37 351.45 445.37 351.01 445.01H351.02Z" fill="#272727"/>
<path d="M657.95 288.05C659.38 288.7 660.28 289.84 661.05 291.18C667.99 303.15 672.07 316.05 672.91 329.83C674.19 350.79 680.34 370.47 687.87 389.86C698.43 417.05 712.24 442.55 728.03 467C738.02 482.47 747.97 497.96 756.46 514.29C764.9 530.53 772.45 547.28 774.7 565.62C776.09 576.99 772.26 587.99 768.48 598.6C765.08 608.15 760.07 617.04 755.05 625.86C753.68 628.27 752.53 629.2 751.08 626.01C757.86 608.96 760.28 591.17 758.79 573.02C757.67 559.32 752.92 546.58 745.37 534.98C744.12 533.06 742.38 531.41 741.88 529.05C742.22 528.59 742.58 528.6 742.96 529.01C752.63 541.92 758.04 556.38 760.14 572.43C762.2 588.14 758.99 603.07 755.42 618.07C755.27 618.68 755.18 619.31 755.42 620.11C758.95 616.5 761.07 611.96 763.07 607.52C768.96 594.44 773.85 581.03 772.97 566.31C772.29 555.04 768.29 544.64 764.08 534.35C755.93 514.43 744.85 496.07 733.31 478C720.16 457.41 707.02 436.81 696.83 414.55C687.08 393.26 678.28 371.6 673.59 348.49C671.71 339.21 671.55 329.77 670.15 320.44C668.61 310.24 664.92 300.95 659.71 292.15C658.96 290.89 658.55 289.43 657.98 288.07L657.95 288.05Z" fill="#2F2F2F"/>
<path d="M745.99 421.36C746.4 432.71 742.68 442.16 736.95 451C735.19 453.72 733.89 453.43 732.29 450.77C721.33 432.48 711.38 413.7 703.95 393.66C702.68 390.25 702.9 388.82 706.93 387.34C720.8 382.23 735.05 393.21 741.38 403.92C744.67 409.48 746.64 415.41 745.98 421.37L745.99 421.36Z" fill="#272727"/>
<path d="M742.96 529.01C742.6 529.02 742.24 529.04 741.88 529.05C730.71 515.53 716.63 505.64 701.7 496.81C698.5 494.92 695.12 493.46 696.83 488.09C705.05 462.22 700.32 437.65 688.87 413.75C681.9 399.2 675.41 384.39 665.29 371.65C656.66 360.78 646.15 351.83 635.33 343.24C631.17 339.94 627.09 336.52 622.72 333.51C614.61 327.93 607.68 328 599.82 333.93C594.03 338.3 587.7 341.46 581.01 344.04C579.68 344.7 578.35 344.84 577.02 344.04C586.32 341.2 594.21 335.79 602.29 330.58C609.08 326.2 616.34 326.98 622.88 331.6C631.81 337.91 640.14 344.99 648.51 352.02C676.47 375.49 689.6 407.69 700.29 441.09C704.1 453 703.13 465.58 700.54 477.86C700.27 479.15 700.45 480.62 699.9 481.76C695.66 490.44 700.14 494.36 707.39 498.48C719.22 505.21 730.11 513.45 739.27 523.73C740.72 525.36 742.16 526.94 742.96 528.99V529.01Z" fill="#3E3E3E"/>
<path d="M694.99 702.99C696.99 702.33 698.99 701.66 700.98 701C700.12 702.87 698.22 703.3 696.62 704.12C675.51 714.93 653.33 722.7 629.96 726.71C618.72 728.64 607.39 729.95 595.9 730.19C588.97 730.33 581.99 731.25 575.04 730.91C551.41 729.75 527.81 728.36 504.56 723.42C495.33 721.46 486.08 719.61 477.01 716.99C475.28 716.49 473.42 716.32 472 715.02C471.64 714.51 471.71 714.05 472.19 713.65C476.56 714.36 480.7 715.96 485.01 716.94C486.44 716.87 487.74 717.27 488.96 718C491.94 718.82 495.03 719.12 498.01 719.97C499.5 721.18 501.52 719.77 503.01 720.98C504.51 722.17 506.52 720.77 508.02 721.98C514.31 723.26 520.66 724.14 527.02 724.98C529.65 726.17 532.51 724.93 535.18 725.72C562 728.66 588.88 729.25 615.69 726.36C642.17 723.51 667.37 715.84 691.31 704.11C692.48 703.54 693.57 702.64 695.02 702.98L694.99 702.99Z" fill="#414141"/>
<path d="M771.92 608.98C774.31 602.1 777.5 595.49 778.91 588.26C781.15 576.76 779.51 565.62 776.71 554.36C769.81 526.63 755.97 502.32 740.22 478.97C729.91 463.68 719.73 448.35 711.03 432.07C710.02 430.18 708.73 428.35 708.97 426.02C714.35 432.84 717.39 441.01 721.79 448.41C730.19 462.52 740.38 475.43 748.89 489.46C759.75 507.37 769.88 525.69 775.99 545.85C781.09 562.69 783.73 579.79 777.92 597.07C776.55 601.14 774.62 605.02 772.95 608.98C772.61 609.39 772.27 609.39 771.93 608.97L771.92 608.98Z" fill="#121212"/>
<path d="M446.97 543.99C431.91 564.4 425.28 587.48 426.15 612.61C427.09 639.64 437.56 662.03 458.67 679.78C466.12 686.04 473.97 689.2 482.95 691.03C483.78 690.94 484.42 691.34 485.03 691.81C486.08 693.04 488.15 692.37 489.01 693.96C478.71 691.31 468.37 690.02 459.36 682.6C430.7 659.02 421.32 628.76 425.71 593.09C427.73 576.64 433.22 561.42 442.58 547.68C443.5 546.32 444.7 545.15 445.77 543.9C446.21 543.39 446.62 543.42 446.97 544V543.99Z" fill="#646464"/>
<path d="M694.99 702.99C671.25 715.4 646.03 723.32 619.53 726.71C598.8 729.36 577.93 730.01 557.02 728.18C551.27 727.67 545.46 727.5 539.68 726.97C538.07 726.82 536.31 727.4 534.95 726.02C535.15 725.87 535.36 725.71 535.56 725.56C537.06 725.61 538.6 725.1 540.03 725.95C557.46 727.29 574.93 727.11 592.39 726.95C625.21 726.64 656.49 719.5 686.18 705.41C689.01 704.07 692.03 703.11 694.97 701.98L694.99 703V702.99Z" fill="#121212"/>
<path d="M577.01 344.05C578.34 344.05 579.67 344.05 581 344.05C569.26 349.18 557.76 347.58 546.42 342.73C543.67 341.56 540.92 340.29 538.41 338.69C529.68 333.15 521.52 334.33 513.4 340.09C493.63 354.12 475.99 370.24 462.83 390.82C457.65 398.91 453.29 407.47 449.04 416.07C448.48 415.39 448.41 414.7 449 413.99C454.61 399.82 462.84 387.18 472.29 375.37C484.09 360.62 498.68 348.89 513.98 337.93C522.82 331.6 531.31 332.4 539.92 337.66C544.66 340.55 549.62 342.69 554.97 344.03C562.31 346.29 569.65 345.74 576.99 344.03L577.01 344.05Z" fill="#1E1E1E"/>
<path d="M351.02 445.01C351.36 445.01 351.69 445.01 352.03 445.01C353.73 446.7 352.99 448.71 352.78 450.65C352.07 457.13 351.9 463.57 353.97 469.89C355.81 475.53 359.34 479.77 364.54 482.59C368.97 484.99 370.79 484.45 372.45 479.67C377.19 466.02 382.31 452.49 386.47 438.64C388.43 432.12 390.22 425.54 392.46 419.11C393.33 416.61 393.57 414.28 392.01 412C395.87 410.16 397.35 411.1 396.13 415.43C391.11 433.16 385.84 450.8 379.5 468.11C377.67 473.1 375.81 478.07 374.03 483.08C373 485.97 371.17 487.46 368.01 487.03C359.42 485.25 351.8 476.6 350.02 467.17C348.6 459.65 349.11 452.32 351.03 445.01H351.02Z" fill="#3F3F3F"/>
<path d="M490 694C491.37 692.19 492.95 693.28 494.52 693.63C519.62 699.23 544.86 703.31 570.68 704.19C594.22 705 617.28 702.81 640.14 697.45C641.72 697.08 643.41 697.16 645.06 697.02C640.75 700.53 635.25 700.1 630.29 701.42C629.53 701.62 628.65 701.35 627.96 701.91C605.89 705.86 583.75 707.36 561.29 705.63C538.86 703.91 516.73 700.75 494.88 695.49C493.94 695.26 492.87 695.66 492.03 694.89C491.35 694.59 490.68 694.29 490 693.98V694Z" fill="#9C9C9C"/>
<path d="M722.04 660.11C723.89 656.65 726.87 654.1 729.87 651.89C733.01 649.59 735.03 646.88 736.24 643.33C741.36 628.25 746.53 613.25 749.22 597.42C752.32 579.21 750 562.15 741.39 545.87C740.77 544.7 740.35 543.44 739.84 542.21C739.52 541.76 739.55 541.35 739.97 540.98C750.25 556.45 753.37 573.58 751.52 591.78C749.61 610.61 743.45 628.35 736.7 645.84C734.13 652.5 727.55 655.97 722.04 660.11Z" fill="#616161"/>
<path d="M492.03 694.91C501.81 696.72 511.58 698.61 521.37 700.31C555.48 706.24 589.67 708.04 623.99 702.1C625.28 701.88 626.63 701.97 627.95 701.92C620.84 704.98 613.14 704.9 605.67 705.87C593.28 707.48 580.77 707.48 568.33 706.87C543.1 705.63 518.19 701.93 493.63 695.94C493.05 695.8 492.56 695.26 492.03 694.91Z" fill="#383838"/>
<path d="M472.01 714.01C472.01 714.35 472.01 714.68 472.01 715.02C448.55 708.32 426.34 698.69 405.71 685.67C399.04 681.46 392.23 677.18 387.03 670.99L387.11 670.76C390.18 669.84 390.84 673.29 393.02 674C395.6 676.12 398.3 678.06 401.02 680C405.39 683.47 410.38 685.95 415.02 689C418.47 691.4 422.55 692.64 426.03 694.99C430.48 696.74 434.55 699.31 439.02 701C440.68 701.67 442.34 702.34 444 703.01C453.28 706.39 462.38 710.28 471.98 712.72C472.43 713.14 472.45 713.58 472.02 714.02L472.01 714.01Z" fill="#363636"/>
<path d="M449.01 414C449.02 414.69 449.03 415.38 449.05 416.08C444.99 427.44 440.52 438.63 438.56 450.68C435.65 468.65 436.45 485.69 448.68 500.51C448.97 500.86 448.99 501.44 449.14 501.92C448.88 502.02 448.62 502.11 448.36 502.21C441.72 497.22 439.13 489.85 437.06 482.33C433.72 470.21 434.62 457.97 437.23 445.9C439.61 434.9 443.39 424.3 448.09 414.05C448.39 414.05 448.7 414.04 449 414.01L449.01 414Z" fill="#232323"/>
<path d="M446.97 543.99C446.57 543.96 446.17 543.93 445.77 543.89C449.74 537.24 455.99 533.16 462.41 529.33C465.25 527.63 468.3 526.26 471.26 524.76C478.36 521.16 478.78 518.38 472.62 513.15C466.93 508.32 461.11 503.64 455.88 498.29C455.2 497.59 454.63 496.77 454.01 496C453.44 495.35 453.36 494.69 453.99 494.02C460.85 501.39 468.86 507.52 476.05 514.53C479.91 518.29 478.86 522.43 473.48 525.23C466.87 528.67 460.28 532.08 454.39 536.73C451.64 538.9 449.16 541.28 446.97 543.98V543.99Z" fill="#5E5E5E"/>
<path d="M689.01 437.99C682.35 418.05 673.67 399.07 662.26 381.38C661.38 380.01 659.97 378.91 659.87 377.09C664.21 379.74 666.2 384.37 668.46 388.44C676.92 403.72 684.59 419.41 690.11 436.04C690.63 437.6 690.81 439.27 691.15 440.89C690.97 441.02 690.79 441.15 690.61 441.28C688.74 440.84 690.05 438.84 689.01 438V437.99Z" fill="#282828"/>
<path d="M739.97 540.98C739.93 541.39 739.88 541.8 739.84 542.21C728.2 524.33 711.14 512.84 693.13 502.43C691.62 501.56 689.77 500.88 688.94 499.06C689.61 498.38 690.27 498.43 690.94 499.06C704.88 507.77 719.24 515.92 730.6 528.15C734.23 532.05 737.63 536.12 739.98 540.97L739.97 540.98Z" fill="#626262"/>
<path d="M407.02 659.98C415.46 664.88 423.58 670.32 432.55 674.27C434.79 675.26 436.96 676.3 440.26 676.85C437.54 672.4 434.2 669.3 433.03 664.97C437.35 668.62 439.56 674.1 444.03 677.64C444.4 677.93 444.63 679.11 444.4 679.35C443.47 680.3 442.27 679.98 441.17 679.51C432.19 675.69 423.14 672 414.98 666.53C412.12 664.61 408.81 663.22 407.03 659.98H407.02Z" fill="#111111"/>
<path d="M454 494.03C454 494.69 454.02 495.35 454.02 496.01C448.16 490.26 445.68 482.86 444.57 475.07C442.4 459.75 445.05 445.01 450.86 430.77C451.43 431.19 451.51 431.7 451.11 432.28C448.22 443.37 444.92 454.38 445.14 466.02C445.34 476.23 447.51 485.81 453.99 494.04L454 494.03Z" fill="#323232"/>
<path d="M451.12 432.27C451.04 431.77 450.96 431.27 450.87 430.76C454.59 418.24 460.54 406.77 467.55 395.85C472.09 388.79 476.16 381.29 483.1 376.08C481.22 380.59 477.44 383.72 474.65 387.57C464.67 401.36 457.52 416.61 451.11 432.26L451.12 432.27Z" fill="#333333"/>
<path d="M439.01 539.98C438.99 539.61 438.96 539.24 438.94 538.87C437.84 536.75 439.78 535.92 440.78 534.8C445.9 529.1 451.85 524.46 458.63 520.83C463.64 518.16 463.74 517.31 459.17 513.78C456.01 511.34 453.13 508.66 450.38 505.8C449.44 504.82 447.75 504 448.87 502.11L449.13 501.9C453.67 506.01 458.23 510.11 462.76 514.24C467.03 518.13 466.96 519.04 461.59 521.66C454.64 525.05 448.58 529.58 443.32 535.2C441.85 536.77 440.44 538.38 439 539.97L439.01 539.98Z" fill="#232323"/>
<path d="M690.93 499.07C690.26 499.07 689.6 499.07 688.93 499.07C684.51 495.73 686.23 491.81 687.87 487.9C689.11 485.07 688.98 481.92 690 479.04C692.5 467.25 693.59 455.44 690.52 443.56C690.32 442.79 690.38 441.91 690.8 441.15L691.14 440.9C694.51 449.08 694.48 457.73 693.73 466.24C693.04 474.09 691.6 481.92 689.25 489.5C688.13 493.1 688.37 496.24 690.92 499.09L690.93 499.07Z" fill="#282828"/>
<path d="M471.93 713.01C462.09 711.15 452.89 707.5 443.99 703C453.98 705.45 463.5 709.26 473.06 712.95C472.71 713.39 472.33 713.41 471.93 713.01Z" fill="#111111"/>
<path d="M771.92 608.98C772.26 608.98 772.6 608.98 772.94 608.99C768.68 616.21 764.95 623.83 757.93 628.96C762.59 622.3 767.26 615.64 771.92 608.97V608.98Z" fill="#111111"/>
<path d="M627.95 701.92C633.45 699.6 639.65 699.69 645.05 697.02C646.37 696.68 647.68 696.35 649 696.01C650.32 695.22 651.64 695.17 652.98 695.96C644.99 699.44 636.66 701.47 627.95 701.92Z" fill="#383838"/>
<path d="M687.99 681C694.28 677.57 700.58 674.13 706.87 670.7C707.37 671.08 707.4 671.49 706.96 671.93C700.92 675.8 694.93 679.76 688.05 682.04C687.44 681.72 687.42 681.37 687.99 680.99V681Z" fill="#404040"/>
<path d="M687.99 681C688.01 681.35 688.03 681.7 688.05 682.05C682.34 684.66 676.64 687.28 670.93 689.89C670.36 690.57 669.65 690.49 668.92 690.24C668.61 689.8 668.62 689.36 668.94 688.93C675.29 686.29 681.64 683.65 687.99 681.01V681Z" fill="#7E7E7E"/>
<path d="M668.94 688.92C668.94 689.22 668.94 689.53 668.94 689.83C664.5 693.4 658.78 693.73 653.75 695.78C653.48 695.78 653.22 695.85 652.98 695.96C651.65 695.98 650.33 696 649 696.01C655.33 692.73 662.26 691.18 668.95 688.91L668.94 688.92Z" fill="#929292"/>
<path d="M750.97 626.99C751.23 629.41 750.62 631.75 749.84 634.2C752.22 634.15 752.95 631.71 754.94 631.95C753.12 634.11 751.33 638.18 748.76 637.05C746.45 636.03 749.36 632.51 749.79 630.06C749.98 628.97 749.8 627.71 750.96 626.98L750.97 626.99Z" fill="#111111"/>
<path d="M415.01 688.99C409.8 686.84 404.81 684.35 401.01 679.99C406.02 682.45 411.01 684.95 415.01 688.99Z" fill="#171717"/>
<path d="M653.75 695.78C658.81 693.8 663.88 691.81 668.94 689.83C669.6 689.85 670.27 689.86 670.93 689.88C665.7 693.3 659.86 694.93 653.75 695.78Z" fill="#292929"/>
<path d="M526.99 724.99C520.46 725.2 514.15 724.06 507.99 721.98C514.45 722.18 520.78 723.22 526.99 724.99Z" fill="#121212"/>
<path d="M439.01 700.99C434.09 700.26 430.05 697.63 426.02 694.98C430.96 695.67 434.99 698.33 439.01 700.99Z" fill="#171717"/>
<path d="M471.93 713.01C472.31 712.99 472.69 712.97 473.06 712.95C477 714.42 481.36 714.62 485.01 716.95C480.42 717.08 476.37 714.84 472.01 714.01C471.98 713.68 471.96 713.34 471.93 713.01Z" fill="#121212"/>
<path d="M426.02 694.98C422.02 693.59 417.99 692.26 415.01 688.99C419.02 690.36 423.07 691.66 426.02 694.98Z" fill="#171717"/>
<path d="M706.97 671.93C706.94 671.52 706.91 671.11 706.88 670.7C709.33 668.44 712.11 666.68 715.04 665.12C713.74 669.03 709.68 669.68 706.97 671.93Z" fill="#3D3D3D"/>
<path d="M401.01 679.99C397.67 678.89 394.95 676.97 393.01 673.99C396.22 675.26 399 677.11 401.01 679.99Z" fill="#171717"/>
<path d="M393.01 674C390.45 674 389.52 671.02 387.1 670.77C387.09 670.16 387.07 669.56 387.06 668.95C389.98 669.53 391.46 671.81 393.01 674Z" fill="#171717"/>
<path d="M498 719.98C494.81 720.12 491.79 719.5 488.95 718.01C492.16 717.78 495.22 718.23 498 719.98Z" fill="#121212"/>
<path d="M534.96 726.01C532.31 725.64 529.45 726.85 526.98 724.99C529.65 724.99 532.32 724.99 535 724.97C535.33 725.18 535.44 725.39 535.34 725.61C535.24 725.83 535.14 725.94 535.03 725.94L534.96 726.01Z" fill="#121212"/>
<path d="M535.03 725.94C535.01 725.62 535 725.3 535 724.97C536.7 725.18 538.6 724.35 540.04 725.94C538.37 725.94 536.7 725.94 535.03 725.94Z" fill="#111111"/>
<path d="M503 720.99C501.3 720.82 499.42 721.55 498 719.98C499.69 720.18 501.61 719.26 503 720.99Z" fill="#121212"/>
<path d="M508 721.99C506.3 721.83 504.42 722.55 502.99 720.99C504.69 721.17 506.61 720.27 508 721.99Z" fill="#121212"/>
<path d="M709.96 695.96C711.04 693.99 712.91 693.32 714.96 692.96C713.91 694.99 712.03 695.64 709.96 695.96Z" fill="#414141"/>
<path d="M704.94 698.93C706.07 697.01 707.91 696.3 709.97 695.96C708.91 697.99 707.05 698.67 704.94 698.93Z" fill="#414141"/>
<path d="M714.84 923.82C701.81 926 689.74 914.57 687.88 900.94C684.57 876.74 690.63 853.94 697.44 831.22C700.3 821.68 703.67 812.32 709.79 804.2C720.13 790.51 734.85 788.48 749.3 794.16C755.32 796.53 759.99 796.86 765.58 792.18C772.84 786.1 782.24 785.09 791.52 786.36C799.6 787.47 806.23 790.77 809.29 799.39C810.78 803.59 815.64 804.24 819.9 801.72C830.58 795.39 841.79 796.48 851.13 804.77C852.95 806.39 853.89 808.34 854 810.87C854.27 816.77 859.39 819.22 864.37 815.96C871.49 811.3 877.32 812.42 882.18 819.33C889.61 829.91 893.12 841.92 894.94 854.51C898.44 878.65 891.71 901.42 885.36 924.21C883.58 930.58 881.86 937 878.56 942.86C871.94 954.6 856.09 953.93 848.08 947.37C843.53 943.64 845.61 937.53 846.37 932.77C848.76 917.79 852.62 903.02 854.6 888C855.8 878.87 856.56 869.51 855.99 860.18C855.58 853.54 856.26 846.94 856.95 840.34C857.24 837.57 856.26 835.74 853.03 836.08C850.67 837.02 850.4 839.41 849.57 841.31C835.55 873.36 830.11 907.48 825.49 941.79C825.02 945.29 826.5 949.25 823.13 952.09C816.05 957.74 808.39 958.92 799.97 955.37C793.99 952.85 792.17 950.14 793.04 943.85C794.33 934.53 795.64 925.22 797.13 915.93C799.68 899.97 802.29 884.03 805.03 868.1C807.36 854.56 808.86 840.96 808.99 827.22C809.01 824.88 809.39 822.35 806.01 821.92C803.2 821.63 802.31 823.79 801.5 825.72C792.37 847.49 783.42 869.39 778.24 892.46C774.46 909.29 772.6 926.52 772.37 943.85C772.33 946.63 772.93 949.54 771.15 952.07C764.74 954.65 758.11 955.08 751.39 953.81C740.69 951.78 733.39 942.55 732.95 931.55C732.08 909.69 735.91 888.5 741.11 867.41C743.28 858.63 743.87 849.47 746.96 840.88C748.58 836.37 750.63 831.98 751.8 827.36C752.33 825.28 753.52 820.7 748.01 822.99C743.05 827.88 740.48 834.32 737.01 840.16C724.45 861.28 717.6 884.23 715.5 908.65C715.2 912.13 715.24 915.64 715.57 919.13C715.72 920.76 716.3 922.45 714.88 923.85L714.84 923.82Z" fill="#525252"/>
<path d="M232.98 930.88C227.91 933.65 224.31 932.98 219.15 928.56C212.49 922.85 210.44 914.92 209.18 906.88C207.56 896.58 206.27 886.13 207.14 875.7C208.7 856.81 208.65 837.64 215.98 819.63C220.18 809.32 227.57 802.86 238.43 800.34C239.94 799.99 241.36 799.88 242.84 800.3C249.39 802.16 254.94 800.87 259.26 795.27C264.27 788.77 271.2 786.88 279.07 786.88C283.49 786.88 287.37 788.1 290.47 791.01C293.79 794.12 297.85 794.98 301.57 793.65C307.77 791.44 312.66 793.65 317.35 796.87C322.58 800.47 327.55 802.18 334.4 801.23C350.62 798.98 367.87 810.49 373.97 826.33C377.08 834.41 378.51 842.78 379.22 851.46C379.87 859.43 380.34 867.4 379.92 875.32C379.14 889.85 377.63 904.36 372.83 918.22C370.59 924.68 367.51 930.77 361.59 934.85C358.5 936.98 355.51 937.12 352.46 934.85C347.52 931.17 343.53 927.57 343.83 920.13C344.5 903.67 344.51 887.15 343.91 870.68C343.28 853.58 338.32 837.32 332.08 821.46C331.18 819.17 330.1 818.55 328.03 819.91C325.65 823.26 325.47 827.27 325.93 830.92C327.29 841.87 326.74 852.88 327.26 863.84C327.92 877.45 329.1 891.09 328.62 904.76C328.45 909.75 328.63 914.73 329.33 919.71C330.24 926.26 328.54 932.59 327.08 938.91C323.52 948.99 315.25 950.49 305.35 948.32C293.21 945.65 293.14 943.05 292.21 929.6C291.16 914.39 293.77 899.15 293.04 883.88C292.45 871.53 290.66 859.31 289.37 847.03C288.49 838.65 289.05 830.11 289.05 821.64C289.05 818.87 288.86 816.48 285.11 817.02C281.74 818.8 281.1 822.13 280.45 825.39C277.92 838.12 276.72 851.03 275.57 863.94C274.17 879.7 274.76 895.49 274.53 911.27C274.42 918.94 274.95 926.55 275.84 934.14C276.08 936.15 276.25 938.12 275.11 939.94C268.22 944.41 263.56 943.98 257.87 938.31C252.73 933.18 250.13 927.23 249.88 919.7C249.42 906.25 249.82 892.73 248.8 879.36C247.56 863.03 245.78 846.76 245.98 830.35C246 828.74 245.21 827.14 245.08 825.51C244.8 822.05 243.07 822.73 241.06 823.94C239.79 825.9 239.06 828.03 238.38 830.29C232.05 851.39 231.2 873.1 231.76 894.84C232.02 904.74 232.26 914.73 233.72 924.59C234.04 926.73 234.16 928.88 232.98 930.86V930.88Z" fill="#525252"/>
<path d="M723.87 779.8C710.37 770.62 695.61 765.32 679.17 764.87C654.3 764.19 631.36 771.53 608.98 781.43C597.68 786.43 586.62 791.78 577.5 800.31C573.87 803.7 570.85 807.74 567.29 811.22C558.67 819.66 550.6 818.75 543.44 809.21C533.44 795.9 520.48 785.61 507.05 776.14C477.09 755.03 445.67 754.55 413.48 771.01C399.4 778.2 385.71 786.01 373.27 795.84C371.84 796.97 370.1 797.77 370.04 799.95C365.49 796.63 360.61 793.88 355.23 791.61C360.25 785.31 366.66 780.83 373.11 776.52C393.86 762.67 416.34 752.41 441.14 749.26C471.02 745.47 498.06 753.75 521.89 772.34C532.12 780.33 539.76 790.64 547.71 800.67C549.81 803.32 552.07 805.61 555.16 807.1C558.85 808.89 562.02 807.96 564.68 805.26C586.3 783.37 611.93 767.94 640.93 758.02C656.17 752.8 671.84 748.9 688.03 750.11C710.74 751.8 731.04 759.25 745.68 777.99C746.05 778.47 746.36 778.99 747.25 780.3C738.88 779.24 731.37 778.67 723.87 779.8Z" fill="#898989"/>
<path d="M771.12 952.05C770.79 920.86 774.93 890.47 786.22 861.14C790.8 849.25 794.96 837.19 800.01 825.48C801.05 823.08 802.06 819.85 805.98 821.9C801.83 825.44 801.67 830.71 800.38 835.39C796.35 849.89 792.51 864.44 790.34 879.37C788.22 893.92 786.07 908.46 783.97 923.01C782.89 930.53 781.92 938.07 780.84 945.6C780.02 951.34 775.4 951.46 771.12 952.05Z" fill="#272727"/>
<path d="M823.11 952.06C824.06 944.01 824.76 935.92 825.99 927.92C830.24 900.38 834.61 872.85 845.9 847.03C846.83 844.9 847.39 842.61 848.3 840.48C849.2 838.37 850 835.99 853.01 836.06C848.78 849.79 844.98 863.73 843.21 877.92C840.96 895.95 836.68 913.58 834.06 931.51C833.92 932.49 833.82 933.53 833.98 934.49C835.49 943.54 829.38 947.85 823.11 952.07V952.06Z" fill="#272727"/>
<path d="M275.12 939.98C271.6 918.7 272.75 897.23 273.33 875.87C273.81 858.24 275.62 840.57 279.27 823.22C279.89 820.29 279.93 816 285.12 817.05C283.13 824.25 282.86 831.74 282.42 839.06C281.77 849.94 278.76 860.73 280.16 871.63C281.66 883.39 281.15 895.16 280.87 906.88C280.68 914.8 279.13 922.85 280.33 930.63C281.16 936.03 279.09 938.1 275.13 939.97L275.12 939.98Z" fill="#272727"/>
<path d="M232.98 930.88C231.03 914.26 229.7 897.58 230.18 880.85C230.68 863.49 231.66 846.12 237.1 829.39C237.84 827.12 238.69 825.01 241.06 823.96C239.76 831.42 238.49 838.89 237.15 846.34C236.46 850.21 238.17 853.81 238.13 857.66C237.95 877.59 237.94 897.53 238.12 917.46C238.17 922.77 236.74 927.18 232.98 930.87V930.88Z" fill="#272727"/>
<path d="M327.08 938.96C328.42 927.04 327.02 915.13 327.04 903.21C327.07 881.11 324.94 859.08 324.87 836.98C324.86 832.39 323.86 827.83 324.95 823.2C325.38 821.34 325.99 820.09 328.02 819.94C329.31 835.41 330.66 850.88 331.87 866.36C332.17 870.17 332.09 874.01 332.02 877.83C331.75 892.23 332.95 906.63 332.03 921.02C331.63 927.34 330.55 933.48 327.08 938.95V938.96Z" fill="#272727"/>
<path d="M714.84 923.82C712.44 900.79 717.65 879.06 726.46 858.06C731.15 846.88 737.07 836.29 744.07 826.35C745.08 824.92 745.64 822.89 747.98 822.97C743.18 831.47 738.98 840.27 734.74 849.07C727.94 863.19 725.71 878.41 723.1 893.53C721.67 901.8 720.87 910.26 721.01 918.7C721.09 923.25 717.19 922.48 714.84 923.82Z" fill="#272727"/>
<path d="M634.88 521.87C629.39 527.71 621.71 529.87 614.89 533.37C606.28 537.79 596.75 539.64 587.17 540.88C583.51 541.35 579.9 540.74 576.3 540.03C569.23 538.63 562.14 537.31 555.05 535.96C556.07 534.45 558.3 535.26 559.52 533.51C557.09 529.62 553.09 526.94 550.64 522.99C548.19 519.05 544.63 515.2 547.28 510.26C549.97 505.25 554.87 503.78 560.41 503.64C565.28 503.52 569.54 504.98 573.7 507.25C581.31 511.4 589.19 513.27 597.6 509.59C599.9 508.59 602.21 507.64 603.8 505.55C606.17 503.36 608.54 501.16 610.99 499.05C613.57 497.26 615.75 494.91 618.55 493.44C623.29 490.95 628.15 490.71 632.65 493.78C637.31 496.96 636.64 501.73 635.62 506.38C634.87 509.81 632.78 512.71 631.62 515.98C629.91 520.82 630.04 520.99 634.87 521.85L634.88 521.87Z" fill="#898989"/>
<path d="M578.06 499.95C587.67 504.46 595.54 501.3 602.76 494.55C606 491.52 609.59 488.88 613.02 486.06C622.05 480.59 632.45 481.05 639.45 486.97C647.99 494.19 646.99 505.02 642.48 512.74C641.28 514.8 639.96 517.07 637.79 518.47C637.65 518.56 637.52 518.69 637.37 518.72C635.42 519.18 633.79 522.4 631.8 520.45C629.85 518.53 631.17 515.79 632.25 513.47C633.79 510.16 635.22 506.83 635.7 503.15C636.56 496.49 632.55 492.02 625.75 491.98C619.87 491.95 615.98 495.59 612.03 499.16C608.93 501.27 606.14 503.77 603.46 506.39C603.08 506.72 602.68 507 602.24 507.24C593.58 512.25 584.76 512.67 575.79 508.12C575.33 507.96 574.88 507.74 574.46 507.49C567.08 503.11 559.53 501.05 551.48 505.76C551.12 506 550.76 506.25 550.41 506.52C549.31 507.16 548.3 507.91 547.73 509.11C547.49 509.48 547.24 509.84 546.98 510.2C545.01 513.42 546.6 516.27 547.92 519.13C549.83 523.26 552.74 526.63 555.95 529.8C557.06 530.9 558.94 532.27 557.72 533.9C556.5 535.53 554.69 534 553.22 533.4C552.3 533.03 551.41 532.57 550.55 532.07C550.13 531.85 549.75 531.58 549.4 531.26C546.92 528.7 544.18 526.43 541.61 523.96C531.35 509.13 545.12 496.01 559.33 495.45C566.08 495.18 571.99 497.73 578.07 499.94L578.06 499.95Z" fill="#010101"/>
<path d="M635.13 397.14C630.97 400.3 626.03 402.5 623 407.03C616.91 414.89 610.8 422.74 603 429.03C584.74 444.38 564.39 443.11 544.8 431.22C539.56 428.04 534.48 424.56 529.5 420.96C521.17 414.94 512.82 416.32 504.75 421.01C500.34 423.57 496.52 427.15 492.41 430.23C490.22 431.88 488.13 434.19 485.03 431.91C484.43 431.33 484.5 430.66 484.78 429.97C488.78 430.06 491.47 427.55 494.21 425.18C495.61 424.32 496.62 423.08 497.47 421.7C500.58 417.67 504.69 414.83 509.03 412.39C517.38 407.68 525.84 408.3 534.33 412.27C542.19 415.94 549.23 420.98 556.72 425.27C564.93 429.98 573.5 433.54 583.24 430.58C590.18 428.47 596.03 424.39 601.71 420.01C607.78 415.32 612.96 409.69 618.39 404.33C621.63 401.14 625.3 398.6 629.58 397.06C631.37 396.42 633.32 395.3 635.13 397.15V397.14Z" fill="#898989"/>
<path d="M597.02 613.82C581.89 614.41 566.77 615.01 551.64 615.58C550.32 615.63 548.97 615.6 547.67 615.37C545.7 615.03 544.27 613.89 544.1 611.77C543.93 609.6 545.27 608.31 547.18 607.79C548.76 607.36 550.45 607.18 552.09 607.13C582.02 606.11 611.94 605.11 641.87 604.16C644.01 604.09 646.2 604.25 648.29 604.69C650.04 605.06 651.1 606.48 651.12 608.36C651.14 610.25 650.07 611.57 648.33 612.05C646.75 612.49 645.06 612.74 643.42 612.74C627.96 612.79 612.49 612.77 597.02 612.77V613.82Z" fill="#020202"/>
<path d="M485.04 691.81C484.21 691.91 483.46 691.79 482.96 691.03C476.57 683.85 469.96 676.82 464.49 668.9C452.7 651.84 444.88 633.13 442 612.5C440.19 599.57 439.99 586.64 443.59 573.97C448.52 556.6 460 544.29 474.72 534.57C479.9 531.15 484.62 527.21 486.87 521.1C489.52 513.93 488.12 508.95 482.06 503.97C475.77 499.04 470.08 493.51 464.93 487.38C457.13 478.09 457.58 467.3 459.72 456.56C463.98 435.15 471.77 415.1 485.28 397.68C495.79 384.12 507.19 371.39 521.04 361.07C522.03 360.38 523.01 359.69 524 359C524.67 358.49 525.34 358.42 526 359.03C518.54 366.32 510.43 372.89 503.1 380.35C480.82 403.05 466.6 429.86 461.23 461.21C459.36 472.15 462.22 481.89 470.34 489.9C474.84 494.33 479.47 498.57 484.54 502.36C491.8 507.78 491.93 520.69 485.28 528.34C480.61 533.71 474.43 537.05 469.01 541.39C456.63 551.31 447.19 563.25 444.06 579.16C440.12 599.18 442.91 618.61 449.84 637.65C456.96 657.21 468.48 673.83 483.04 688.49C483.98 689.44 485 690.32 485.05 691.81H485.04Z" fill="#B4B4B4"/>
<path d="M525.99 359.02C525.32 359.02 524.66 359 523.99 358.99C528.98 353.58 535.05 353.93 540.91 356.61C560.69 365.62 580.19 364.24 598.86 354.3C606.61 350.17 612.89 351.39 619.34 355.31C642.77 369.55 659.2 389.84 670.43 414.69C676.22 427.49 679.89 440.82 682.42 454.58C682.99 457.71 682.02 460.49 681.62 463.36C680.4 472.21 678.93 481.04 679.03 489.99C679.12 498.31 683.2 504.65 689.2 510.19C697.57 517.93 708.27 522.11 717.06 529.27C729.05 539.03 735.34 551.91 738.88 566.3C744.23 588.04 738.93 609 733.17 629.86C730.96 637.87 727.96 645.6 725.05 653.37C724.62 654.53 724.14 655.49 722.97 655.99C725.92 647.02 728.97 638.09 731.8 629.08C737.23 611.84 740.4 594.18 738.86 576.1C737.18 556.4 729.41 539.55 712.66 527.9C705.85 523.16 698.67 518.96 691.8 514.31C679.18 505.78 674.9 493.55 678.3 479.19C683.54 457 678.41 436.53 669.7 416.4C663.1 401.14 653.98 387.47 642.62 375.49C634.99 367.44 626.15 360.53 616.27 355.22C610.94 352.36 605.71 352.3 600.16 355.38C584.72 363.97 568.24 365.86 551.04 362.06C547.25 361.22 543.85 359.49 540.43 357.79C535.37 355.28 530.54 355.4 526 359.02H525.99Z" fill="#989898"/>
<path d="M597.13 634.99C589.26 635.57 579.12 634.02 569.05 635.84C566.21 636.35 563.73 634.67 563.53 632.08C563.34 629.66 565.74 628.24 568.31 627.99C587.19 626.1 606.11 627.28 625.01 627.14C627.62 627.12 630.84 627.92 630.72 631.37C630.6 634.89 627.55 635.02 624.75 635.01C616.28 634.98 607.81 635 597.12 635L597.13 634.99Z" fill="#8C8C8C"/>
<path d="M635.13 397.14C628.79 397.55 623.83 400.78 619.5 405.06C611.93 412.53 604.41 419.97 595.59 426.08C582.33 435.26 569.3 434.52 556.04 426.45C549.38 422.39 542.85 418.13 535.96 414.43C520.99 406.4 508.83 410.87 498.02 423.04C497.54 423.44 497.11 423.39 496.72 422.91C496.05 421.23 497.05 420.06 497.97 418.87C504.92 409.89 518.99 405.49 529.97 408.84C537.06 411.01 543.28 414.89 549.47 418.81C553.83 421.57 558.16 424.38 562.86 426.56C573.24 431.37 583.11 430.51 592.76 424.35C601.54 418.75 608.67 411.25 616.26 404.3C620.88 400.06 625.46 396.12 631.8 394.91C635.21 394.26 637.38 392.16 638.67 389.03C639.12 388.66 639.59 388.62 640.09 388.93V388.99C640.58 390.67 640.83 392.35 639.93 393.99L635.12 397.17L635.13 397.14Z" fill="#6E6E6E"/>
<path d="M605 506.02C599.53 512.36 588.19 514.73 579.46 511.19C575.49 509.58 571.75 507.36 567.71 505.98C562.4 504.17 556.96 504.04 551.91 507.08C547.39 509.8 546.54 512.62 548.79 517.45C550.92 522.01 554.17 525.73 557.7 529.28C559.24 530.82 562.37 532.04 561.37 534.58C560.34 537.19 557.23 535.61 555.04 535.96C552.43 534.68 549.49 533.87 547.96 531.03C548.63 530.37 549.31 530.44 549.97 531.04H549.95C551.72 532.27 553.71 533.12 555.64 534.09C556.42 534.48 557.37 534.79 557.95 534.11C558.85 533.06 557.8 532.29 557.13 531.65C552.9 527.63 549.05 523.31 546.74 517.87C545.49 514.92 544.46 511.89 547.08 509.05L547.06 509.08C547.71 507.73 548.72 506.73 550.06 506.07L550.03 506.09C558.6 499.82 566.8 502.6 574.94 507.09L574.92 507.07C584.49 512.24 593.88 512.08 603.06 506.09L603.03 506.12C603.65 505.42 604.3 505.41 604.98 506.03L605 506.02Z" fill="#636363"/>
<path d="M610.97 498.99C614.35 496.4 617.28 493.3 621.56 491.85C626.4 490.21 630.39 491.32 633.94 494.48C637.15 497.34 636.99 500.93 636.13 504.95C635.04 510.05 631.36 514.48 632.13 520.35C633.96 519.54 635.56 518.82 637.17 518.11C637.55 518.79 637.63 519.41 636.81 519.84C636.17 520.52 635.52 521.19 634.88 521.87C634.25 522.06 633.62 522.24 632.99 522.44C631.82 522.83 630.68 524.44 629.47 523.23C628.5 522.26 629.05 520.67 629.42 519.41C630.08 517.19 630.82 514.99 631.63 512.82C632.5 510.49 633.72 508.26 634.34 505.87C635.34 501.99 636.36 497.82 632.36 494.92C628.36 492.02 623.85 492.02 619.63 494.31C616.6 495.95 613.93 498.24 611.09 500.24C610.57 499.87 610.53 499.45 610.97 498.99Z" fill="#202020"/>
<path d="M578.06 499.95C574.77 500.24 572.08 498.32 569.09 497.49C559.28 494.76 550.39 496.02 543.06 503.52C537.41 509.3 537.46 517.63 542.86 524.08C543.97 526.26 547.08 527.07 546.96 530.08C540.01 526.21 537.06 519.75 537.34 512.36C537.64 504.4 543.28 499.43 550.18 496.68C559.86 492.82 569.3 494.28 578.06 499.94V499.95Z" fill="#434343"/>
<path d="M502.79 404.86C512.3 398.55 522.56 397.54 533.16 401.23C543.36 404.78 552.56 410.28 560.95 417.1C559.42 418.22 557.94 417.36 556.44 416.99C550.98 414.14 546.1 410.31 540.63 407.49C530.27 402.16 519.58 400.31 508.4 404.88C507.02 405.44 505.63 406.05 504.06 405.76C503.53 405.62 503.11 405.32 502.8 404.86H502.79Z" fill="#989898"/>
<path d="M636.8 519.84C636.92 519.26 637.04 518.68 637.16 518.11C639.63 515.84 641.68 513.23 643.08 510.19C646.58 502.59 645.7 494.28 640.72 489.19C634.15 482.47 626.2 481.79 617.64 484.38C616.07 484.85 614.56 485.5 613.02 486.07C618.14 480.74 626.92 479.7 635.03 483.47C642.82 487.09 647.65 494.63 646.73 501.97C645.82 509.24 643.39 515.71 636.81 519.86L636.8 519.84Z" fill="#7E7E7E"/>
<path d="M528.82 448.91C533.51 443.43 539.11 440.21 546.61 441.89C553.02 443.32 557.37 447.11 558.64 453.6C559.83 459.7 557.85 464.97 552.99 469.02C552.61 468.65 552.41 468.21 552.38 467.69C553.07 463.98 555.92 461.09 555.79 456.92C555.48 447.18 546.35 441.42 537.56 445.7C535.04 446.93 533.05 449.17 530.11 449.58C529.58 449.54 529.15 449.31 528.81 448.91H528.82Z" fill="#878787"/>
<path d="M556.95 416.15C558.28 416.47 559.62 416.78 560.95 417.1C572.54 424.47 580.67 424.16 592.35 415.81C594.35 414.38 596.17 412.7 598.07 411.13C598.74 410.45 599.43 410.41 600.17 411.03C600.29 411.71 600.22 412.36 599.84 412.94C593.42 422.91 576.8 427.99 566.07 422.86C562.73 421.26 558.07 420.96 556.96 416.15H556.95Z" fill="#393939"/>
<path d="M607 459C602.4 453.66 602.58 446.79 607.89 440.12C616.74 429.02 632.64 432.92 635.92 442.05C635.52 442.37 635.07 442.51 634.57 442.46C633.93 442.26 633.4 441.88 632.9 441.45C626.03 435.51 620.41 434.65 614.05 438.55C607.45 442.6 605.4 448.49 607.65 456.95C607.72 457.73 607.57 458.44 607 459.01V459Z" fill="#646464"/>
<path d="M552.86 467.72C552.91 468.15 552.95 468.58 553 469.01C545.14 474.51 534.54 473.21 528.37 465.98C524.66 461.64 524.83 455.42 528.82 448.9C529.31 448.98 529.79 449.06 530.28 449.13C530.95 450.27 530.58 451.39 530.16 452.47C528.25 457.35 528.3 461.9 532.52 465.61C537.12 469.65 542.33 470.85 548.19 468.64C549.68 468.08 551.08 466.87 552.86 467.71V467.72Z" fill="#787878"/>
<path d="M634.79 442.21C635.17 442.16 635.54 442.1 635.92 442.05C638.9 449.58 636.42 457.71 629.82 462.03C622.31 466.95 613.51 465.78 607 459C606.96 458.4 606.92 457.8 606.89 457.2C608.75 456.3 609.54 458.04 610.6 458.83C615.73 462.66 621.31 463.39 626.84 460.38C632.5 457.3 635.26 452.22 634.51 445.57C634.38 444.44 634.06 443.28 634.8 442.22L634.79 442.21Z" fill="#3E3E3E"/>
<path d="M599.8 410.81C599.22 410.92 598.64 411.02 598.07 411.13C606.31 402.15 614.07 392.59 626 388.1C626.33 388.47 626.48 388.9 626.44 389.39C623.01 393.46 617.76 395.1 614.01 398.91C610.69 402.29 606.89 405.25 603.51 408.64C602.49 409.67 601.5 410.88 599.8 410.8V410.81Z" fill="#8E8E8E"/>
<path d="M502.79 404.86C503.27 404.95 503.76 405.04 504.24 405.13C504.38 406.7 503.3 407.54 502.21 408.27C494.22 413.68 488.46 420.85 485.05 429.89C485.04 430.56 485.03 431.23 485.02 431.9C482.79 430.04 482.22 427.57 483.6 425.2C488.4 416.95 494.02 409.39 502.78 404.85L502.79 404.86Z" fill="#909090"/>
<path d="M603 429.03C609.67 421.7 616.33 414.36 623 407.03C617.87 415.76 611.65 423.5 603 429.03Z" fill="#9D9D9D"/>
<path d="M626.07 389.29C626.04 388.89 626.02 388.49 625.99 388.1C629 387.41 631.98 386.5 635.03 386.1C637.15 385.82 639.33 386.29 640.09 388.9C639.7 388.95 639.3 389.01 638.91 389.06C634.63 389.37 630.37 390.56 626.07 389.29Z" fill="#8A8A8A"/>
<path d="M546.96 530.08C546.24 527.64 543.2 526.78 542.86 524.08C545.8 525.83 548.05 528.27 549.97 531.05C549.3 531.05 548.63 531.05 547.96 531.04C547.63 530.72 547.29 530.41 546.96 530.09V530.08Z" fill="#151515"/>
<path d="M639.94 393.95C639.99 392.28 640.04 390.62 640.1 388.95C641.47 390.66 641.64 392.33 639.94 393.95Z" fill="#8A8A8A"/>
<path d="M419.05 637.96C422.67 646.26 424.94 655.13 429.65 663.08C423.18 658.18 417.89 652.26 412.97 645.95C400.55 630.04 395.49 611.63 393.94 591.88C393.23 582.8 391.91 573.76 392.06 564.63C392.51 537.41 396.49 511.05 407.46 485.68C419.33 458.23 427.96 429.59 432.74 399.98C434.05 391.84 434.51 383.52 435.29 375.29C436.37 363.95 434.99 352.77 435.02 341.52C435.04 334.22 433.62 327.01 433.28 319.76C432.74 308.2 433.51 296.78 442.63 287.94C443.59 287 444.54 286.06 446 286C436.84 294.47 434 305.48 435.2 317.21C436.57 330.57 437.5 344.01 437.47 357.32C437.45 366.63 437.29 376.13 436.35 385.57C434.46 404.45 430.3 422.77 425.17 440.92C419.76 460.06 412.55 478.59 404.94 496.92C400.17 508.41 398.04 520.43 396.14 532.5C393.92 546.62 393.41 560.93 394.12 575.19C394.92 591.06 396.59 607.02 401.51 622.11C405.44 634.15 413.05 644.54 423.13 654.46C422.14 647.95 418.7 643.4 419.04 637.97L419.05 637.96Z" fill="#4D4D4D"/>
<path d="M448.88 502.12C450.8 506.35 454.58 508.88 457.83 511.89C459.16 513.12 460.57 514.28 461.97 515.43C464.67 517.63 463.97 519.14 461.1 520.44C453.44 523.91 447.01 529.07 441.33 535.21C440.32 536.3 439.09 537.23 438.94 538.87C433.65 542.72 432.4 549.49 428.02 553.99C430.27 546.14 435.37 540.05 440.53 534.04C445.45 528.31 451.33 523.68 458.12 520.36C462.09 518.42 461.83 516.44 458.6 514.12C451.2 508.81 445.22 502.13 440.89 494.21C435.01 483.47 433.7 471.85 434.52 459.67C435.49 445.37 440.33 432.24 444.97 418.97C445.65 417.01 446.65 415.43 448.1 414.04C445.63 422.96 441.59 431.34 439.33 440.35C435.74 454.67 434.08 469.01 438.13 483.45C440.11 490.51 443.13 497.14 448.88 502.11V502.12Z" fill="#4D4D4D"/>
<path d="M427.04 555.99C424.61 564.56 420.69 572.63 418.91 581.43C415.43 598.63 414.74 615.81 418.52 633.05C418.87 634.65 418.89 636.32 419.06 637.96C416.03 632.63 415.65 626.54 415.18 620.76C413.5 600.02 416.23 579.79 424.04 560.37C424.72 558.68 425.15 556.84 427.04 555.99Z" fill="#4D4D4D"/>
<path d="M577.01 344.05C569.67 346.86 562.33 346.88 554.99 344.05C562.33 345.22 569.67 344.72 577.01 344.05Z" fill="#3E3E3E"/>
<path d="M521.04 361.06C514.86 367.05 508.64 373 502.5 379.03C480.75 400.4 466.8 425.9 460.42 455.85C456.65 473.55 462.39 486.79 475.95 497.69C478.18 499.48 480.91 501.02 482.07 503.96C478.03 502.87 475.62 499.47 472.66 496.99C459.13 485.65 455.38 471.43 459.3 454.2C465.55 426.74 477.77 402.8 497.07 382.17C503.78 375 510.89 368.43 518.37 362.17C519.17 361.5 519.99 361.04 521.05 361.05L521.04 361.06Z" fill="#989898"/>
<path d="M690.81 441.14C693.37 453.03 693.7 464.94 690.95 476.85C690.77 477.61 690.33 478.31 690.01 479.04C689.33 475.35 690.53 471.78 691.13 468.28C692.78 458.76 691.36 449.61 689.06 440.46C688.86 439.68 689.02 438.82 689.01 437.99C689.61 439.04 690.21 440.09 690.81 441.14Z" fill="#626262"/>
<path d="M690.01 479.03C690.06 482.17 689.8 485.23 687.88 487.89C687.93 484.78 688.25 481.73 690.01 479.03Z" fill="#626262"/>
<path d="M392 412C396.77 412.35 394.94 415.31 394.21 417.73C388.42 436.94 382.48 456.11 375.56 474.95C374.93 476.66 374.48 478.44 373.85 480.15C371.52 486.44 369.45 487.14 363.54 483.73C355.12 478.87 351.7 471.17 351.03 461.86C350.62 456.2 351.58 450.63 352.03 445.02C354.31 434.09 360.21 425.6 369.77 419.95C376.61 415.91 383.97 412.91 392 412Z" fill="#525252"/>
<path d="M744.97 422.32C744.78 428.68 743.39 434.78 740.94 440.64C740.45 441.82 740.35 443.57 738.72 443.56C737.32 443.56 736.62 442.12 735.96 440.95C728.43 427.64 721.6 413.98 716.02 399.73C715.11 397.41 714.44 394.98 713.27 392.8C711.29 389.09 712.15 387.91 716.37 387.91C723.72 387.91 729.06 392.04 733.73 396.61C740.78 403.51 745.31 411.95 744.97 422.32Z" fill="#515151"/>
<path d="M625 511.82C624.97 512.11 625.01 512.35 624.92 512.42C620.64 515.89 616.44 519.49 611.96 522.69C611.02 523.36 610.22 521.56 610.11 520.35C609.65 515.45 616.4 508.48 621.21 508.84C623.23 508.99 624.78 509.63 624.99 511.83L625 511.82Z" fill="#1C1C1C"/>
<path d="M573.32 525.13C572.68 525.13 571.69 525.14 570.7 525.13C568.84 525.11 567.44 524.32 567.04 522.43C566.57 520.21 568.01 519.04 569.78 518.28C574.34 516.3 583.79 518.64 586.87 522.41C588 523.8 588.75 525.38 587.78 526.95C586.71 528.69 585.06 527.55 583.78 527.03C580.53 525.73 577.29 524.47 573.33 525.12L573.32 525.13Z" fill="#101010"/>
<path d="M610.97 498.99C611.01 499.41 611.05 499.82 611.09 500.24C609.06 502.17 607.03 504.09 605 506.02C604.35 506.05 603.7 506.08 603.05 506.11C604.93 502.89 608.45 501.49 610.98 498.99H610.97Z" fill="#151515"/>
<path d="M547.08 509.05C544.28 517.28 550.19 522.24 554.25 527.84C555.29 529.28 556.89 530.32 558.19 531.59C558.99 532.37 560.28 533.24 559.44 534.45C558.74 535.46 557.27 535.16 556.19 534.81C553.85 534.03 551.49 533.2 549.96 531.04C552.36 531.93 554.77 532.81 557.17 533.7C552.91 528.69 548.32 524.1 545.99 517.93C544.84 514.88 543.43 511.61 547.08 509.06V509.05Z" fill="#151515"/>
<path d="M603.07 506.09C595.72 512.57 583.65 513.71 574.93 507.07C576.05 507.28 577.3 507.24 578.28 507.72C585.58 511.31 592.71 510.57 599.8 507.11C600.82 506.61 601.98 506.42 603.07 506.08V506.09Z" fill="#151515"/>
<path d="M574.95 507.09C573.1 506.44 571.17 505.96 569.41 505.12C562.75 501.95 556.36 502.91 550.04 506.08C552.48 502.52 556.12 501.86 560.05 501.98C565.53 502.15 570.9 502.69 574.95 507.08V507.09Z" fill="#151515"/>
<path d="M550.07 506.07C549.39 507.4 548.39 508.4 547.07 509.08C547.06 507.07 548.06 506.06 550.07 506.07Z" fill="#151515"/>
<path d="M626.07 389.29C630.35 389.08 634.58 386.22 638.91 389.06C639.38 391.82 638.86 394.47 635.81 394.92C623.37 396.72 616.27 406.24 607.9 413.87C600.62 420.51 593.26 426.94 583.6 429.95C576.18 432.27 569.14 430.87 562.32 427.68C555.07 424.28 548.59 419.58 541.74 415.51C529.29 408.11 516.76 405.37 504.11 414.99C501.22 417.19 498.28 419.41 496.85 422.97C496.48 424.17 495.67 425.07 494.85 425.96C491.88 428 490.18 433.2 485.06 429.9C484.39 427.1 485.5 424.82 486.98 422.51C491.48 415.45 497.4 409.84 504.24 405.13C522.73 395.74 538.26 403.4 553.35 413.64C554.56 414.46 555.75 415.3 556.95 416.14C570.46 427.95 590.09 425.51 599.8 410.8C608.19 403.18 615.36 394.07 626.07 389.28V389.29Z" fill="#010101"/>
<path d="M494.85 425.96C494.95 424.59 495.66 423.62 496.85 422.97C497.24 422.99 497.63 423.01 498.02 423.03C497.3 424.37 496.43 425.54 494.85 425.97V425.96Z" fill="#737373"/>
<path d="M552.86 467.72C547.68 471.1 542.23 472.37 536.35 469.68C527.29 465.55 525.53 459.52 530.28 449.14C535.35 444.84 540.63 441.08 547.82 443.63C556.46 446.7 559.9 456.04 555.34 463.98C554.6 465.27 553.69 466.47 552.86 467.71V467.72Z" fill="#010101"/>
<path d="M634.79 442.21C637.31 450.11 634.99 456.89 628.29 461.15C621.63 465.39 613.97 463.98 606.88 457.2C603.47 448.96 606.32 441.22 614.4 436.75C621.46 432.85 629.7 435.06 634.79 442.21Z" fill="#010101"/>
<path d="M584.06 523.89C579.33 523.52 575.53 523.22 571.73 522.91C570.97 522.85 570.42 522.4 570.5 521.69C570.61 520.8 571.37 520.2 572.21 520.15C576.12 519.93 580.19 519.21 584.06 523.88V523.89Z" fill="#030303"/>
</svg>
